# xmcd
#
# Track frame offsets: 
#        150
#        25560
#        56312
#        88122
#        108757
#        131865
#        155680
#        174962
#        199764
#
# Disc length: 3147 seconds
#
# Revision: 0
# Processed by: cddbd v1.5.2PL0 Copyright (c) Steve Scherf et al.
# Submitted via: ExactAudioCopy v1.0b1
#
DISCID=6a0c4909
DTITLE=John Martyn - Heaven and Earth
DYEAR=2011
DGENRE=Blues
TTITLE0=Heel Of The Hunt
TTITLE1=Stand Amazed
TTITLE2=Heaven And Earth
TTITLE3=Bad Company
TTITLE4=Could've Told You Before I Met You
TTITLE5=Gambler
TTITLE6=Can't Turn Back The Years
TTITLE7=Colour
TTITLE8=Willing To Work
EXTD=
EXTT0=
EXTT1=
EXTT2=
EXTT3=
EXTT4=
EXTT5=
EXTT6=
EXTT7=
EXTT8=
PLAYORDER=
